<?xml version="1.0" standalone="no"?>
<!DOCTYPE svg PUBLIC "-//W3C//DTD SVG 20010904//EN"
 "http://www.w3.org/TR/2001/REC-SVG-20010904/DTD/svg10.dtd">
<svg version="1.0" xmlns="http://www.w3.org/2000/svg"
 width="126.000000pt" height="126.000000pt" viewBox="0 0 126.000000 126.000000"
 preserveAspectRatio="xMidYMid meet">
<metadata>
Created by potrace 1.14, written by Peter Selinger 2001-2017
</metadata>
<g transform="translate(0.000000,126.000000) scale(0.100000,-0.100000)"
fill="#000000" stroke="none">
<path d="M174 1215 c-47 -14 -124 -55 -124 -66 0 -5 9 -13 20 -19 16 -8 30 -4
74 20 107 61 224 48 306 -33 24 -23 38 -32 32 -20 -52 96 -196 151 -308 118z"/>
<path d="M710 1216 c-19 -5 -53 -21 -75 -35 -40 -27 -105 -104 -105 -124 0 -7
6 -3 12 8 69 126 233 161 360 78 33 -22 39 -23 62 -11 l27 14 -28 20 c-66 49
-179 71 -253 50z"/>
<path d="M189 1106 c-173 -46 -234 -235 -117 -362 22 -24 48 -46 59 -49 11 -4
23 -22 29 -48 33 -129 122 -280 214 -364 168 -154 374 -234 633 -248 82 -4 93
2 22 11 -377 50 -671 250 -743 504 -26 93 -27 110 -6 110 93 0 227 108 231
187 0 10 7 -1 15 -24 18 -50 83 -118 133 -139 94 -41 226 -17 296 53 138 138
50 353 -155 377 l-45 6 48 -14 c82 -24 126 -60 156 -126 51 -115 -38 -248
-176 -266 -63 -8 -151 14 -174 43 -13 15 -12 15 8 5 12 -7 44 -12 71 -12 41 0
55 5 89 35 95 81 77 218 -34 267 -83 37 -176 -1 -212 -84 l-16 -40 -14 39
c-34 92 -147 128 -235 73 -99 -61 -91 -221 14 -275 33 -17 72 -21 120 -11 l35
7 -40 -23 c-61 -34 -175 -33 -230 3 -76 50 -105 97 -105 170 0 22 6 54 13 72
17 40 88 105 124 113 16 3 39 10 53 14 41 14 -7 11 -61 -4z"/>
<path d="M288 1113 c7 -3 16 -2 19 1 4 3 -2 6 -13 5 -11 0 -14 -3 -6 -6z"/>
<path d="M490 1061 c0 -6 4 -13 10 -16 6 -3 7 1 4 9 -7 18 -14 21 -14 7z"/>
<path d="M477 720 l-38 -51 37 -69 c20 -39 40 -70 43 -70 4 0 22 31 41 69 l33
69 -37 51 c-21 28 -39 51 -40 51 -1 0 -19 -23 -39 -50z"/>
<path d="M728 640 c-78 -22 -126 -100 -114 -186 21 -154 152 -285 355 -356 64
-21 185 -36 141 -17 -141 63 -217 107 -269 159 -85 84 -129 191 -109 267 11
41 40 57 91 50 45 -6 85 -39 128 -106 36 -56 39 -28 5 44 -52 113 -141 169
-228 145z"/>
</g>
</svg>
